<svg width="130" height="175" viewBox="0 0 130 175" fill="none" xmlns="http://www.w3.org/2000/svg">
<path d="M29.3479 87.384V85.464C31.7799 83.8 36.7399 80.728 44.2279 76.248C48.8359 73.304 51.7799 70.84 53.0599 68.856C54.3399 66.872 54.9799 64.536 54.9799 61.848C54.9799 59.096 54.3079 56.984 52.9639 55.512C51.6839 53.976 50.0839 53.208 48.1639 53.208C46.2439 53.208 44.3879 53.912 42.5959 55.32C40.8039 56.728 39.4599 58.04 38.5639 59.256C37.7319 60.408 37.2519 61.144 37.1239 61.464L35.5879 60.504C36.4199 58.968 37.7639 57.272 39.6199 55.416C43.3319 51.576 48.1639 49.656 54.1159 49.656C61.0279 49.656 64.4839 52.632 64.4839 58.584C64.4839 61.976 63.0119 65.016 60.0679 67.704C57.1239 70.392 52.0039 73.944 44.7079 78.36H63.2359L59.9719 87.384H29.3479Z" fill="url(#paint0_linear_7_145)"/>
<path d="M67.6609 84.528C75.8529 84.528 81.9542 86.192 85.9649 89.52C89.9756 92.848 91.9809 97.2 91.9809 102.576C91.9809 107.952 90.7862 112.517 88.3969 116.272C86.0076 120.027 82.8076 122.971 78.7969 125.104C70.8609 129.2 61.8156 131.248 51.6609 131.248V128.816C61.2182 128.816 68.4289 126.939 73.2929 123.184C78.2422 119.429 80.7169 113.115 80.7169 104.24C80.7169 92.464 75.5542 86.576 65.2289 86.576H61.0049L72.2689 60.208H105.293L100.941 72.24H69.9649L64.7169 84.528H67.6609Z" fill="url(#paint1_linear_7_145)"/>
<path fill-rule="evenodd" clip-rule="evenodd" d="M61.2722 91.9049L60.467 92.4434L60.0592 96.7669L57.5241 97.8131L53.8815 94.2817L52.3826 95.1297L54.7166 99.5982L52.4799 101.651L47.5383 99.6994L46.9935 101.177L50.9085 103.97L50.3828 106.733L45.5782 107.627L45.5946 108.73L49.9572 109.862L50.4664 112.336L47.2017 115.138L47.7862 116.324L51.7353 115.074L53.6559 117.159L52.2925 120.761L53.3479 121.849L56.5181 119.048L59.8363 119.828L60.4632 123.862L61.2722 124.702V127.356C50.5775 127.356 41.9077 118.925 41.9077 108.525C41.9077 98.1255 50.5775 89.6948 61.2722 89.6948V91.9049Z" fill="black"/>
<path fill-rule="evenodd" clip-rule="evenodd" d="M63.2559 125.143C63.1276 125.143 63.0014 125.126 62.8781 125.094V92.2668C64.4715 92.4044 65.732 94.4921 65.7249 97.0439C65.7233 97.6347 65.6538 98.2003 65.5282 98.7222L65.5528 98.7274C65.7737 98.0162 66.1454 97.2664 66.6607 96.5467C68.2109 94.3818 70.474 93.3083 71.7156 94.1489C72.9572 94.9896 72.707 97.4261 71.1569 99.591C70.807 100.08 70.4208 100.513 70.0182 100.881C70.1029 100.951 70.1864 101.022 70.2687 101.095C70.9829 100.776 71.8716 100.532 72.8679 100.371L72.9508 100.357C75.6376 99.9227 77.6833 99.5918 78.1772 101.766C78.4854 103.122 76.5839 104.331 73.5675 105.344C73.4294 105.391 73.2949 105.433 73.1637 105.471C73.2009 105.584 73.236 105.699 73.269 105.814C73.859 105.844 74.5277 105.929 75.2739 106.069C77.7738 106.538 79.9955 107.775 79.6795 109.266C79.3635 110.756 76.9534 111.533 74.2965 111C73.9809 110.937 73.6761 110.858 73.3844 110.765C73.3446 110.933 73.3005 111.1 73.2522 111.264C73.7136 111.39 74.1861 111.564 74.6559 111.785C77.0978 112.934 78.5432 114.939 77.8843 116.263C77.2253 117.587 74.7115 117.73 72.2696 116.581C71.6582 116.293 71.1094 115.952 70.6403 115.581C70.5904 115.629 70.54 115.678 70.489 115.725C70.863 116.124 71.2153 116.587 71.5266 117.103C72.8991 119.378 72.9539 121.826 71.6489 122.571C70.3439 123.315 68.1734 122.074 66.8009 119.798C66.4754 119.259 66.224 118.709 66.0473 118.175C65.9162 118.21 65.784 118.242 65.6508 118.272C65.8213 118.906 65.9161 119.62 65.914 120.373C65.9067 123.011 64.7167 125.147 63.2559 125.143ZM66.1487 115.562C65.1149 115.966 64.0074 116.172 62.8894 116.169L62.9097 108.086L62.93 100.003C64.0479 100.005 65.1543 100.217 66.1861 100.626C67.2179 101.035 68.1549 101.632 68.9435 102.385C69.7321 103.137 70.3569 104.03 70.7823 105.011C71.2076 105.993 71.4252 107.045 71.4225 108.106C71.4198 109.168 71.197 110.218 70.7668 111.198C70.3365 112.178 69.7072 113.067 68.9148 113.816C68.1225 114.565 67.1825 115.158 66.1487 115.562Z" fill="#FFCC00"/>
<path d="M62.8894 116.169C64.0073 116.172 65.1148 115.966 66.1487 115.562C67.1825 115.158 68.1225 114.565 68.9148 113.816C69.7072 113.067 70.3365 112.178 70.7667 111.198C71.197 110.218 71.4198 109.168 71.4225 108.106C71.4251 107.045 71.2076 105.993 70.7822 105.011C70.3569 104.03 69.7321 103.137 68.9435 102.385C68.1549 101.632 67.2179 101.035 66.1861 100.626C65.1543 100.217 64.0479 100.005 62.9299 100.003L62.9097 108.086L62.8894 116.169Z" fill="black"/>
<path d="M38.078 116.064L42.185 115.504L42.454 116.014L37.912 116.56L37.7386 116.231L38.078 116.064ZM40.9753 113.212L38.1859 116.268L37.8547 116.451L37.6813 116.123L40.7049 112.7L40.9753 113.212ZM39.6085 114.01L40.0192 113.795L41.136 115.912L40.7254 116.127L39.6085 114.01Z" fill="black"/>
<path d="M36.8019 107.924L41.0548 108.318L41.0022 108.881L36.7493 108.486L36.8019 107.924ZM37.0413 105.363L38.8598 107.309L39.7983 108.396L39.1879 108.433L38.4339 107.611L36.9781 106.039L37.0413 105.363ZM41.2436 106.3L39.0229 107.677L38.6073 107.301L41.3063 105.63L41.2436 106.3Z" fill="black"/>
<path d="M41.191 98.1953L42.5246 99.0076C42.5638 99.0932 42.5949 99.2105 42.618 99.3595C42.6395 99.5075 42.628 99.6868 42.5835 99.8976C42.5383 100.106 42.4325 100.345 42.266 100.617C42.1301 100.838 41.9666 101.019 41.7755 101.158C41.5837 101.295 41.3717 101.387 41.1395 101.433C40.9066 101.476 40.6604 101.471 40.4009 101.415C40.1408 101.358 39.8748 101.246 39.6029 101.08L39.3202 100.908C39.0483 100.742 38.825 100.563 38.6503 100.37C38.4766 100.175 38.3538 99.9696 38.282 99.7544C38.2085 99.5381 38.189 99.3158 38.2236 99.0877C38.2566 98.8585 38.345 98.6265 38.4891 98.3918C38.6597 98.1138 38.8505 97.911 39.0617 97.7835C39.2722 97.6533 39.4939 97.587 39.7267 97.5848C39.9605 97.5808 40.1943 97.6294 40.4278 97.7305L40.1321 98.2125C39.9871 98.1538 39.8404 98.124 39.6921 98.1229C39.5449 98.1201 39.4025 98.158 39.2649 98.2365C39.1256 98.3141 38.9988 98.4461 38.8844 98.6325C38.7812 98.8007 38.7227 98.9651 38.7088 99.1259C38.695 99.2867 38.7211 99.4421 38.7871 99.5921C38.8532 99.7421 38.9557 99.8869 39.0947 100.026C39.2347 100.164 39.4072 100.296 39.6124 100.421L39.9001 100.596C40.1103 100.724 40.3128 100.814 40.5076 100.866C40.7033 100.917 40.8877 100.932 41.0607 100.912C41.2319 100.89 41.3864 100.834 41.5241 100.745C41.6628 100.653 41.7797 100.53 41.8747 100.375C41.9799 100.203 42.051 100.056 42.088 99.932C42.1234 99.8071 42.1394 99.7026 42.1362 99.6183C42.1312 99.5329 42.1201 99.4633 42.1028 99.4093L41.2871 98.9125L40.7708 99.754L40.3804 99.5163L41.191 98.1953Z" fill="black"/>
<path d="M47.0453 93.4489L47.3317 93.8082L45.5581 95.211L45.2718 94.8516L47.0453 93.4489ZM42.9924 91.8076L45.6478 95.14L45.2039 95.4912L42.5484 92.1587L42.9924 91.8076ZM45.5833 92.0941L45.8696 92.4535L44.3307 93.6706L44.0444 93.3113L45.5833 92.0941ZM44.6532 90.494L44.9414 90.8556L43.1908 92.2402L42.9027 91.8785L44.6532 90.494Z" fill="black"/>
<path d="M52.4315 89.811L52.9632 89.6246C53.0251 89.8881 53.0324 90.1407 52.985 90.3825C52.9377 90.6244 52.8268 90.842 52.6523 91.0354C52.4773 91.227 52.2282 91.3794 51.9051 91.4926C51.6688 91.5755 51.4382 91.6068 51.2131 91.5865C50.99 91.5656 50.7806 91.4985 50.585 91.3852C50.3887 91.2701 50.2125 91.1118 50.0562 90.9104C49.9012 90.7065 49.774 90.4638 49.6746 90.1825L49.5334 89.7826C49.434 89.5013 49.381 89.2337 49.3743 88.9799C49.3688 88.7235 49.4073 88.4889 49.4898 88.2761C49.5741 88.0626 49.7004 87.8768 49.8686 87.7186C50.0368 87.5605 50.2456 87.4377 50.4948 87.3503C50.7994 87.2435 51.0771 87.2102 51.3278 87.2504C51.5785 87.2906 51.7977 87.3914 51.9855 87.5529C52.1744 87.7119 52.3295 87.9189 52.4507 88.174L51.919 88.3604C51.827 88.1819 51.7221 88.0379 51.6046 87.9282C51.4863 87.8168 51.3496 87.7469 51.1944 87.7187C51.0392 87.6905 50.8573 87.7129 50.6487 87.7861C50.4696 87.8488 50.3238 87.9382 50.2112 88.0541C50.1005 88.1694 50.021 88.3057 49.9729 88.4631C49.9266 88.6199 49.9112 88.7937 49.9268 88.9845C49.9423 89.1754 49.9878 89.3774 50.0631 89.5907L50.2063 89.9961C50.2758 90.1928 50.3614 90.3705 50.4631 90.5291C50.5666 90.687 50.6838 90.8164 50.8149 90.9172C50.9459 91.0179 51.0903 91.083 51.248 91.1124C51.405 91.14 51.5731 91.1224 51.7522 91.0597C51.9792 90.98 52.1475 90.8807 52.2569 90.7618C52.3664 90.6428 52.4315 90.5043 52.4524 90.3461C52.4752 90.1873 52.4682 90.0089 52.4315 89.811Z" fill="black"/>
<circle cx="65" cy="97" r="63.5" stroke="url(#paint2_linear_7_145)" stroke-width="3"/>
<path d="M11.721 109.801C12.4564 109.8 13.0004 109.849 13.3529 109.949C13.7072 110.054 13.9338 110.222 14.0329 110.454C14.0769 110.557 14.09 110.653 14.0723 110.742C14.0547 110.831 14.0055 110.906 13.9249 110.967C13.6243 110.763 13.2401 110.6 12.7721 110.479C12.3103 110.36 11.7975 110.295 11.2337 110.282L9.09899 110.774L8.76617 109.996L11.0007 109.505C11.5021 109.123 11.8746 108.789 12.1183 108.504C12.368 108.221 12.4947 107.995 12.4983 107.825C12.6223 107.807 12.7335 107.829 12.8318 107.893C12.9302 107.957 13.0069 108.053 13.0619 108.182C13.1224 108.324 13.1313 108.457 13.0886 108.583C13.0501 108.707 12.9527 108.841 12.7964 108.986C12.6444 109.129 12.4086 109.314 12.0892 109.54L11.721 109.801Z" fill="black"/>
<path d="M15.233 117.312C15.3334 117.589 15.3541 117.83 15.2951 118.037C15.2377 118.248 15.0779 118.403 14.8158 118.501C14.5668 118.595 14.3279 118.601 14.099 118.517C13.87 118.434 13.6635 118.282 13.4794 118.063C13.2968 117.847 13.1498 117.586 13.0383 117.279C12.9937 117.156 12.955 117.036 12.9223 116.919C12.7734 116.96 12.6399 117.003 12.522 117.047C12.2686 117.143 12.0953 117.261 12.0021 117.4C11.9089 117.54 11.9029 117.722 11.9841 117.945C12.0526 118.134 12.1577 118.286 12.2992 118.403C12.4451 118.517 12.6162 118.585 12.8125 118.606C12.8185 118.663 12.8022 118.714 12.7638 118.758C12.7253 118.803 12.6732 118.837 12.6077 118.862C12.4767 118.911 12.3309 118.907 12.1703 118.847C12.0098 118.788 11.8559 118.679 11.7088 118.52C11.5616 118.361 11.4442 118.161 11.3566 117.92C11.218 117.539 11.2193 117.214 11.3605 116.947C11.506 116.677 11.7994 116.46 12.2406 116.294C12.6294 116.147 13.024 116.078 13.4245 116.087C13.8309 116.098 14.1965 116.202 14.5213 116.399C14.8476 116.6 15.0849 116.905 15.233 117.312ZM14.8046 117.302C14.7217 117.074 14.5241 116.926 14.2118 116.86C13.9039 116.791 13.5866 116.786 13.2601 116.844C13.3828 117.182 13.5594 117.449 13.7901 117.647C14.0207 117.844 14.2736 117.891 14.5488 117.787C14.6755 117.739 14.7582 117.673 14.7971 117.589C14.8419 117.507 14.8444 117.411 14.8046 117.302Z" fill="black"/>
<path d="M17.5973 127.284C17.4786 127.362 17.3986 127.419 17.3574 127.457C17.2474 127.558 17.2338 127.666 17.3168 127.779C17.2191 127.831 17.117 127.839 17.0104 127.804C16.9069 127.773 16.8148 127.712 16.7339 127.621C16.6468 127.524 16.5995 127.419 16.592 127.305C16.5876 127.195 16.6271 127.092 16.7106 126.997C16.5487 127.019 16.3862 126.987 16.2229 126.903C16.0597 126.819 15.9128 126.703 15.7822 126.557C15.5427 126.29 15.4493 126.021 15.502 125.751C15.5613 125.481 15.7491 125.2 16.0653 124.91C16.3747 124.626 16.7187 124.405 17.0974 124.247C17.476 124.089 17.8528 124.034 18.2279 124.082C18.6095 124.131 18.9433 124.315 19.2294 124.635C19.3134 124.729 19.381 124.822 19.4323 124.914C19.4866 125.01 19.54 125.126 19.5924 125.261L20.1259 125.721L17.5973 127.284ZM19.1054 125.452C19.101 125.342 19.0752 125.233 19.0281 125.124C18.9841 125.019 18.9294 124.93 18.8641 124.857C18.7023 124.676 18.499 124.606 18.2541 124.647C18.0092 124.689 17.7383 124.792 17.4414 124.957C17.2762 125.045 17.1019 125.152 16.9186 125.276C16.7418 125.4 16.5984 125.513 16.4884 125.614C16.3234 125.766 16.2175 125.917 16.1707 126.067C16.1273 126.215 16.1631 126.353 16.2782 126.482C16.4368 126.659 16.642 126.724 16.8938 126.676C17.149 126.626 17.4087 126.517 17.6729 126.35L19.1054 125.452Z" fill="black"/>
<path d="M23.4291 132.321C23.6393 132.242 23.8507 132.222 24.0632 132.26C24.2791 132.302 24.4617 132.399 24.6112 132.553C24.7606 132.707 24.8281 132.871 24.8137 133.043C24.7993 133.216 24.7195 133.375 24.5743 133.52C24.4093 133.686 24.2219 133.781 24.0121 133.806C23.8088 133.831 23.6374 133.772 23.4977 133.628C23.3937 133.521 23.3519 133.417 23.3723 133.318C23.4674 133.302 23.5676 133.268 23.6728 133.215C23.7812 133.166 23.8684 133.108 23.9344 133.042C24.0697 132.907 24.0789 132.779 23.9619 132.658C23.728 132.417 23.2703 132.532 22.5888 133.003L20.9738 134.134L20.349 133.611L23.4205 131.528L23.938 131.94L23.4291 132.321Z" fill="black"/>
<path d="M28.3708 141.439C28.4572 141.312 28.4898 141.172 28.4685 141.021C28.451 140.872 28.3968 140.677 28.3059 140.437C28.1975 140.157 28.131 139.914 28.1065 139.709C28.082 139.504 28.1352 139.305 28.2661 139.112C28.3918 138.926 28.5592 138.804 28.7682 138.745C28.9772 138.686 29.2003 138.685 29.4374 138.742C29.6784 138.803 29.9041 138.906 30.1144 139.053C30.3439 139.213 30.5069 139.393 30.6035 139.591C30.7027 139.785 30.6868 139.979 30.5559 140.173C30.4564 140.319 30.33 140.402 30.1768 140.42C30.0236 140.439 29.8762 140.398 29.7347 140.299C29.6276 140.225 29.5655 140.15 29.5485 140.075C29.6937 139.978 29.7977 139.882 29.8605 139.789C30.0072 139.573 29.9715 139.389 29.7535 139.236C29.6196 139.143 29.4863 139.107 29.3537 139.128C29.2274 139.148 29.1211 139.222 29.0347 139.349C28.9456 139.481 28.9099 139.621 28.9273 139.77C28.9512 139.917 29.0068 140.11 29.0939 140.347C29.1661 140.54 29.2181 140.704 29.2498 140.84C29.2881 140.975 29.3005 141.115 29.2872 141.259C29.2777 141.406 29.2271 141.548 29.1354 141.683C29.0071 141.872 28.8372 141.998 28.6255 142.061C28.4139 142.124 28.1863 142.127 27.9427 142.071C27.7003 142.022 27.4739 141.923 27.2636 141.776C27.015 141.603 26.8323 141.398 26.7156 141.163C26.5989 140.928 26.6047 140.716 26.733 140.526C26.8325 140.379 26.9594 140.308 27.1136 140.314C27.2743 140.318 27.4235 140.368 27.5612 140.464C27.6682 140.539 27.7348 140.619 27.7607 140.706C27.6286 140.784 27.5246 140.88 27.4486 140.992C27.302 141.208 27.3415 141.395 27.5672 141.553C27.7087 141.652 27.8541 141.691 28.0035 141.67C28.1567 141.651 28.2792 141.575 28.3708 141.439Z" fill="black"/>
<path d="M41.7336 146.299C42.1426 146.504 42.3682 146.749 42.4104 147.037C42.4526 147.324 42.3871 147.646 42.214 148.003C42.0185 148.406 41.7716 148.75 41.4732 149.034C41.1769 149.314 40.8411 149.493 40.466 149.572C40.0909 149.65 39.703 149.589 39.3024 149.389C38.8976 149.187 38.6741 148.942 38.6319 148.655C38.5897 148.368 38.6552 148.046 38.8283 147.689C39.0238 147.285 39.2697 146.944 39.5661 146.664C39.8645 146.38 40.1991 146.198 40.5701 146.117C40.9452 146.038 41.333 146.099 41.7336 146.299ZM41.4127 146.608C41.1957 146.5 40.9818 146.508 40.7712 146.632C40.5606 146.757 40.3455 146.954 40.1259 147.226C40.0047 147.369 39.8817 147.531 39.7568 147.714C39.6381 147.895 39.5451 148.055 39.4779 148.193C39.2661 148.63 39.3146 148.926 39.6234 149.08C39.8404 149.188 40.0542 149.18 40.2649 149.056C40.4797 148.934 40.6969 148.737 40.9165 148.466C41.0376 148.323 41.1575 148.161 41.2763 147.98C41.4012 147.798 41.4972 147.637 41.5644 147.498C41.7762 147.061 41.7256 146.765 41.4127 146.608Z" fill="black"/>
<path d="M49.8894 149.425C50.0822 149.093 50.3128 148.874 50.5811 148.769C50.8538 148.665 51.1735 148.667 51.5403 148.776C51.8086 148.856 52.0171 148.966 52.1656 149.108C52.3142 149.249 52.3613 149.414 52.3071 149.603C52.2657 149.746 52.1813 149.845 52.0539 149.9C51.9322 149.951 51.7998 149.956 51.6567 149.913C51.527 149.875 51.4379 149.822 51.3896 149.754C51.4845 149.66 51.5481 149.557 51.5804 149.445C51.6399 149.239 51.5735 149.107 51.3812 149.05C51.0949 148.965 50.8505 149.131 50.6477 149.548L50.4354 149.982L51.0459 150.163L50.9183 150.454L50.2877 150.266L48.8024 153.221L48.0009 153.071L49.5498 150.047L49.0735 149.906L49.2211 149.621L49.6907 149.76L49.8894 149.425Z" fill="black"/>
<path d="M66.2986 151.149C66.2987 151.368 66.2287 151.534 66.0887 151.646C65.9534 151.758 65.7715 151.814 65.5428 151.814C65.2861 151.814 65.0014 151.751 64.6888 151.625L64.4302 153.13L65.6901 153.13C65.6902 153.33 65.6296 153.477 65.5083 153.571C65.387 153.66 65.2236 153.704 65.0183 153.704C64.7896 153.704 64.5633 153.65 64.3393 153.543L64.0527 155.146L64.8997 155.146C64.993 155.146 65.0934 155.139 65.2007 155.125C65.308 155.111 65.392 155.09 65.4527 155.062C65.4807 155.099 65.504 155.148 65.5227 155.209C65.5414 155.265 65.5507 155.321 65.5508 155.377C65.5508 155.531 65.4832 155.636 65.3478 155.692C65.2172 155.743 65.0445 155.769 64.8299 155.769L63.0939 155.77L63.9816 151.149L66.2986 151.149Z" fill="black"/>
<path d="M72.719 152.391C72.5728 152.147 72.3805 152.034 72.1422 152.052C72.14 151.93 72.177 151.828 72.2532 151.748C72.3287 151.664 72.4353 151.609 72.5732 151.585C72.7616 151.551 72.9247 151.591 73.0626 151.704C73.1996 151.813 73.3458 151.988 73.5012 152.231L73.9304 152.908C74.0681 152.718 74.1665 152.546 74.2254 152.394C74.2882 152.236 74.3054 152.074 74.2769 151.908C74.2531 151.77 74.193 151.627 74.0963 151.478C74.139 151.423 74.1993 151.375 74.2772 151.332C74.3552 151.29 74.4378 151.261 74.5252 151.246C74.6814 151.218 74.8061 151.241 74.8993 151.314C74.9924 151.388 75.0517 151.498 75.077 151.645C75.1158 151.871 75.0668 152.095 74.93 152.318C74.7978 152.541 74.6024 152.782 74.3439 153.041L74.1369 153.241L74.7622 154.275C74.9085 154.519 75.1007 154.632 75.3391 154.613C75.3412 154.736 75.3042 154.837 75.228 154.917C75.1525 155.001 75.0459 155.056 74.908 155.08C74.7104 155.115 74.5427 155.076 74.4049 154.963C74.2662 154.846 74.1246 154.67 73.98 154.435L73.5473 153.737C73.4096 153.927 73.3055 154.106 73.2351 154.275C73.1693 154.443 73.1503 154.608 73.178 154.769C73.2009 154.902 73.2607 155.043 73.3573 155.192C73.3147 155.247 73.2544 155.295 73.1764 155.338C73.0985 155.38 73.0158 155.409 72.9285 155.424C72.7722 155.452 72.6475 155.429 72.5544 155.356C72.4612 155.282 72.4024 155.174 72.3778 155.032C72.3359 154.788 72.3913 154.546 72.5441 154.305C72.7015 154.064 72.9202 153.808 73.2001 153.535L73.3408 153.404L72.719 152.391Z" fill="black"/>
<path d="M82.7164 149.047C82.997 148.944 83.2417 148.922 83.4504 148.98C83.6634 149.036 83.8098 149.176 83.8893 149.4C83.9548 149.585 83.9507 149.748 83.877 149.889C83.8061 150.025 83.6961 150.119 83.5471 150.174C83.4199 150.22 83.3169 150.223 83.2381 150.183C83.241 150.107 83.2364 150.024 83.2243 149.934C83.2107 149.84 83.1929 149.762 83.1711 149.7C83.1336 149.595 83.0785 149.523 83.0056 149.485C82.9312 149.443 82.8413 149.441 82.7361 149.479C82.5388 149.552 82.4039 149.723 82.3313 149.993C82.2571 150.258 82.2343 150.557 82.2631 150.889C82.2946 151.216 82.3533 151.5 82.439 151.741C82.6247 152.265 82.9169 152.453 83.3159 152.307C83.5044 152.239 83.6485 152.121 83.7482 151.956C83.8464 151.786 83.8948 151.594 83.8935 151.381C84.0582 151.37 84.1725 151.455 84.2364 151.636C84.291 151.789 84.2861 151.95 84.2218 152.118C84.1618 152.284 84.0486 152.439 83.8822 152.585C83.7218 152.733 83.5254 152.849 83.2931 152.934C82.5346 153.212 82.001 152.915 81.6922 152.044C81.5534 151.653 81.4909 151.254 81.5049 150.846C81.5232 150.437 81.6315 150.072 81.8297 149.751C82.0307 149.424 82.3263 149.19 82.7164 149.047Z" fill="black"/>
<path d="M90.9205 145.269C91.175 145.122 91.4078 145.06 91.619 145.083C91.8342 145.104 92.0103 145.237 92.1474 145.481C92.2777 145.712 92.3198 145.949 92.2739 146.192C92.2279 146.434 92.1118 146.666 91.9255 146.887C91.7432 147.105 91.5107 147.297 91.2279 147.46C91.1148 147.526 91.0034 147.585 90.8938 147.638C90.9571 147.779 91.0196 147.904 91.0813 148.014C91.2138 148.25 91.3557 148.403 91.5068 148.471C91.6579 148.54 91.8364 148.515 92.0425 148.396C92.2162 148.295 92.3488 148.164 92.4405 148.003C92.5299 147.838 92.5695 147.656 92.5594 147.457C92.6147 147.442 92.6671 147.449 92.7165 147.48C92.7658 147.51 92.8077 147.556 92.8419 147.617C92.9105 147.739 92.9283 147.885 92.8953 148.055C92.8624 148.225 92.7796 148.397 92.647 148.571C92.5144 148.745 92.337 148.896 92.1149 149.025C91.7634 149.228 91.446 149.283 91.1626 149.188C90.8769 149.089 90.6187 148.835 90.3879 148.424C90.1845 148.062 90.0561 147.681 90.0025 147.281C89.9507 146.874 89.9959 146.492 90.1379 146.135C90.2839 145.775 90.5448 145.487 90.9205 145.269ZM90.9765 145.698C90.7664 145.819 90.6529 146.041 90.636 146.364C90.6167 146.682 90.6609 146.999 90.7683 147.314C91.0794 147.134 91.3135 146.912 91.4706 146.649C91.6277 146.385 91.6343 146.125 91.4904 145.869C91.4241 145.751 91.3467 145.68 91.2581 145.656C91.1713 145.625 91.0775 145.639 90.9765 145.698Z" fill="black"/>
<path d="M99.2775 143.21C99.3372 143.323 99.3887 143.408 99.432 143.463C99.5243 143.58 99.6291 143.6 99.7466 143.523C99.7911 143.625 99.7927 143.729 99.7511 143.834C99.7132 143.937 99.6453 144.028 99.5473 144.108C99.4349 144.199 99.3201 144.238 99.2029 144.225C99.0857 144.212 98.9825 144.148 98.8931 144.035C98.8094 143.928 98.6608 143.668 98.447 143.252L96.7483 139.892L97.3111 139.328L99.2775 143.21Z" fill="black"/>
<path d="M104.924 138.063C104.998 138.167 105.061 138.243 105.111 138.292C105.219 138.395 105.326 138.401 105.431 138.308C105.489 138.403 105.505 138.506 105.479 138.616C105.455 138.723 105.4 138.823 105.314 138.915C105.216 139.021 105.107 139.075 104.989 139.079C104.872 139.082 104.761 139.033 104.656 138.933C104.559 138.839 104.376 138.601 104.107 138.219L101.962 135.124L102.442 134.488L104.924 138.063Z" fill="black"/>
<path d="M108.068 129.48C108.233 129.237 108.416 129.08 108.616 129.009C108.819 128.934 109.035 128.977 109.264 129.138C109.482 129.29 109.623 129.486 109.687 129.724C109.751 129.962 109.747 130.221 109.675 130.502C109.606 130.778 109.479 131.051 109.296 131.322C109.222 131.43 109.148 131.531 109.072 131.627C109.19 131.726 109.301 131.812 109.404 131.885C109.626 132.04 109.82 132.115 109.985 132.112C110.151 132.108 110.301 132.008 110.435 131.811C110.548 131.645 110.61 131.47 110.623 131.285C110.632 131.097 110.589 130.916 110.493 130.741C110.536 130.703 110.586 130.687 110.644 130.693C110.702 130.699 110.76 130.722 110.817 130.762C110.932 130.843 111.011 130.966 111.055 131.134C111.099 131.302 111.099 131.493 111.055 131.707C111.011 131.921 110.917 132.134 110.773 132.347C110.545 132.683 110.283 132.87 109.987 132.907C109.687 132.943 109.344 132.825 108.958 132.555C108.617 132.317 108.336 132.029 108.114 131.692C107.891 131.348 107.766 130.984 107.739 130.6C107.715 130.213 107.824 129.839 108.068 129.48ZM108.304 129.842C108.168 130.043 108.162 130.292 108.287 130.59C108.408 130.886 108.585 131.152 108.818 131.389C109.02 131.092 109.135 130.79 109.162 130.485C109.189 130.179 109.082 129.942 108.841 129.773C108.731 129.696 108.63 129.665 108.54 129.682C108.448 129.692 108.37 129.745 108.304 129.842Z" fill="black"/>
<path d="M112.862 122.597C112.699 122.39 112.609 122.166 112.592 121.928C112.575 121.689 112.619 121.453 112.723 121.218C112.842 120.949 112.999 120.784 113.193 120.724C113.386 120.658 113.616 120.686 113.883 120.808C114.053 120.885 114.229 120.989 114.412 121.118C114.59 121.246 114.82 121.423 115.103 121.649C115.25 121.767 115.392 121.878 115.53 121.982C115.665 122.079 115.773 122.147 115.854 122.183C115.926 122.216 115.989 122.23 116.042 122.223C116.094 122.211 116.14 122.17 116.18 122.102C116.267 122.172 116.316 122.263 116.327 122.376C116.34 122.485 116.321 122.597 116.27 122.712C116.144 122.998 115.921 123.068 115.603 122.923C115.475 122.865 115.33 122.778 115.167 122.663C115.006 122.543 114.798 122.384 114.544 122.186C114.322 122.008 114.145 121.871 114.014 121.776C113.883 121.68 113.771 121.611 113.677 121.568C113.537 121.504 113.415 121.492 113.311 121.532C113.202 121.57 113.12 121.653 113.063 121.781C112.963 122.007 112.991 122.243 113.148 122.489C113.302 122.728 113.518 122.948 113.798 123.147L115.415 124.3L115.171 125.058L112.136 122.89L112.326 122.253L112.862 122.597Z" fill="black"/>
<path d="M115.851 112.194C115.921 111.904 116.039 111.688 116.202 111.546C116.367 111.399 116.565 111.355 116.796 111.412C116.986 111.46 117.12 111.553 117.197 111.693C117.27 111.826 117.288 111.97 117.251 112.125C117.219 112.256 117.164 112.343 117.086 112.387C117.025 112.343 116.954 112.301 116.872 112.261C116.786 112.22 116.711 112.192 116.648 112.176C116.539 112.149 116.449 112.156 116.377 112.195C116.3 112.234 116.249 112.308 116.222 112.417C116.173 112.621 116.241 112.828 116.425 113.037C116.605 113.246 116.841 113.43 117.134 113.589C117.423 113.743 117.692 113.851 117.941 113.913C118.48 114.047 118.799 113.908 118.899 113.495C118.946 113.3 118.929 113.115 118.846 112.941C118.759 112.765 118.626 112.619 118.448 112.502C118.531 112.359 118.665 112.311 118.85 112.357C119.009 112.397 119.14 112.49 119.244 112.636C119.349 112.777 119.416 112.958 119.444 113.176C119.479 113.392 119.467 113.62 119.409 113.86C119.219 114.645 118.676 114.926 117.779 114.702C117.376 114.602 117.009 114.433 116.677 114.197C116.347 113.956 116.103 113.664 115.946 113.322C115.785 112.974 115.754 112.598 115.851 112.194Z" fill="black"/>
<path d="M117.295 103.158C117.314 102.864 117.393 102.636 117.53 102.472C117.668 102.304 117.876 102.23 118.155 102.249C118.421 102.267 118.641 102.362 118.817 102.533C118.992 102.704 119.12 102.928 119.2 103.205C119.279 103.477 119.309 103.777 119.287 104.103C119.278 104.233 119.265 104.358 119.247 104.479C119.4 104.503 119.539 104.52 119.665 104.529C119.935 104.547 120.141 104.512 120.282 104.424C120.424 104.336 120.503 104.173 120.519 103.935C120.532 103.735 120.497 103.552 120.415 103.388C120.328 103.223 120.199 103.09 120.028 102.989C120.046 102.934 120.081 102.894 120.134 102.87C120.187 102.846 120.249 102.836 120.318 102.841C120.458 102.85 120.589 102.915 120.712 103.036C120.835 103.157 120.932 103.32 121.002 103.526C121.072 103.732 121.099 103.964 121.082 104.22C121.055 104.625 120.923 104.92 120.686 105.104C120.444 105.289 120.088 105.365 119.618 105.332C119.204 105.304 118.815 105.202 118.453 105.027C118.086 104.848 117.794 104.6 117.577 104.286C117.36 103.967 117.266 103.591 117.295 103.158ZM117.682 103.346C117.666 103.588 117.787 103.805 118.045 103.996C118.299 104.186 118.587 104.323 118.909 104.406C118.933 104.048 118.879 103.73 118.748 103.455C118.617 103.179 118.404 103.031 118.111 103.011C117.976 103.001 117.874 103.027 117.804 103.088C117.73 103.143 117.69 103.23 117.682 103.346Z" fill="black"/>
<path d="M58.4088 135.28C58.6035 135.28 58.7581 135.319 58.8728 135.396C58.9875 135.473 59.0448 135.592 59.0448 135.752C59.0448 135.883 59.0075 135.984 58.9328 136.056C58.8608 136.125 58.7768 136.16 58.6808 136.16C58.6035 136.16 58.5395 136.143 58.4888 136.108C58.5075 136.065 58.5221 136.016 58.5328 135.96C58.5435 135.904 58.5488 135.855 58.5488 135.812C58.5488 135.727 58.5235 135.659 58.4728 135.608C58.4248 135.557 58.3568 135.532 58.2688 135.532C58.1621 135.532 58.0741 135.568 58.0048 135.64C57.9381 135.712 57.9048 135.803 57.9048 135.912C57.9048 136.032 57.9421 136.136 58.0168 136.224C58.0941 136.309 58.2075 136.407 58.3568 136.516C58.4688 136.599 58.5595 136.673 58.6288 136.74C58.6981 136.804 58.7568 136.883 58.8048 136.976C58.8555 137.067 58.8808 137.171 58.8808 137.288C58.8808 137.448 58.8355 137.589 58.7448 137.712C58.6541 137.832 58.5328 137.925 58.3808 137.992C58.2315 138.056 58.0701 138.088 57.8968 138.088C57.6888 138.088 57.5128 138.043 57.3688 137.952C57.2248 137.861 57.1528 137.733 57.1528 137.568C57.1528 137.453 57.1875 137.365 57.2568 137.304C57.3261 137.24 57.4101 137.208 57.5088 137.208C57.5888 137.208 57.6555 137.225 57.7088 137.26C57.6901 137.303 57.6755 137.352 57.6648 137.408C57.6541 137.464 57.6488 137.512 57.6488 137.552C57.6488 137.64 57.6795 137.708 57.7408 137.756C57.8021 137.804 57.8808 137.828 57.9768 137.828C58.0995 137.828 58.2048 137.789 58.2928 137.712C58.3808 137.635 58.4248 137.535 58.4248 137.412C58.4248 137.335 58.4048 137.263 58.3648 137.196C58.3275 137.129 58.2808 137.072 58.2248 137.024C58.1688 136.973 58.0901 136.909 57.9888 136.832C57.8688 136.739 57.7741 136.661 57.7048 136.6C57.6355 136.536 57.5755 136.457 57.5248 136.364C57.4768 136.271 57.4528 136.164 57.4528 136.044C57.4528 135.889 57.4941 135.755 57.5768 135.64C57.6621 135.523 57.7768 135.433 57.9208 135.372C58.0675 135.311 58.2301 135.28 58.4088 135.28ZM59.9843 135.104C60.0723 135.104 60.143 135.125 60.1963 135.168C60.2497 135.211 60.2763 135.272 60.2763 135.352C60.2763 135.435 60.247 135.499 60.1883 135.544C60.1323 135.587 60.0603 135.608 59.9723 135.608C59.8843 135.608 59.8137 135.587 59.7603 135.544C59.707 135.501 59.6803 135.44 59.6803 135.36C59.6803 135.277 59.7083 135.215 59.7643 135.172C59.823 135.127 59.8963 135.104 59.9843 135.104ZM59.7643 137.584C59.751 137.656 59.7443 137.712 59.7443 137.752C59.7443 137.837 59.7843 137.884 59.8643 137.892C59.8483 137.953 59.8123 138 59.7563 138.032C59.703 138.064 59.6403 138.08 59.5683 138.08C59.4857 138.08 59.4203 138.056 59.3723 138.008C59.3243 137.96 59.3003 137.895 59.3003 137.812C59.3003 137.735 59.3257 137.565 59.3763 137.304L59.6483 135.96L60.1003 135.912L59.7643 137.584ZM61.0112 136.272C61.0805 136.139 61.1752 136.04 61.2952 135.976C61.4152 135.912 61.5485 135.88 61.6952 135.88C61.8632 135.88 61.9859 135.924 62.0632 136.012C62.1432 136.097 62.1832 136.224 62.1832 136.392C62.1832 136.499 62.1712 136.615 62.1472 136.74C62.1232 136.863 62.0859 137.024 62.0352 137.224C62.0085 137.328 61.9845 137.428 61.9632 137.524C61.9445 137.617 61.9352 137.689 61.9352 137.74C61.9352 137.785 61.9432 137.821 61.9592 137.848C61.9779 137.872 62.0099 137.887 62.0552 137.892C62.0392 137.953 62.0032 138 61.9472 138.032C61.8939 138.064 61.8312 138.08 61.7592 138.08C61.5805 138.08 61.4912 137.98 61.4912 137.78C61.4912 137.7 61.5019 137.604 61.5232 137.492C61.5472 137.38 61.5805 137.235 61.6232 137.056C61.6632 136.899 61.6925 136.775 61.7112 136.684C61.7299 136.593 61.7392 136.519 61.7392 136.46C61.7392 136.372 61.7165 136.305 61.6712 136.26C61.6259 136.212 61.5632 136.188 61.4832 136.188C61.3419 136.188 61.2259 136.257 61.1352 136.396C61.0472 136.532 60.9845 136.696 60.9472 136.888L60.7312 138L60.2792 138.048L60.6872 135.96L61.0632 135.912L61.0112 136.272ZM63.5714 135.88C63.742 135.88 63.878 135.916 63.9794 135.988C64.0834 136.06 64.1354 136.164 64.1354 136.3C64.1354 136.412 64.102 136.499 64.0354 136.56C63.9714 136.619 63.894 136.648 63.8034 136.648C63.726 136.648 63.67 136.629 63.6354 136.592C63.6514 136.552 63.6647 136.507 63.6754 136.456C63.686 136.403 63.6914 136.357 63.6914 136.32C63.6914 136.256 63.6754 136.207 63.6434 136.172C63.6114 136.135 63.5634 136.116 63.4994 136.116C63.3794 136.116 63.274 136.181 63.1834 136.312C63.0927 136.44 63.0234 136.596 62.9754 136.78C62.93 136.961 62.9074 137.125 62.9074 137.272C62.9074 137.589 63.0287 137.748 63.2714 137.748C63.386 137.748 63.486 137.713 63.5714 137.644C63.6567 137.572 63.7194 137.479 63.7594 137.364C63.85 137.391 63.8954 137.459 63.8954 137.568C63.8954 137.661 63.862 137.747 63.7954 137.824C63.7314 137.901 63.6407 137.963 63.5234 138.008C63.4087 138.056 63.2807 138.08 63.1394 138.08C62.678 138.08 62.4474 137.816 62.4474 137.288C62.4474 137.051 62.49 136.824 62.5754 136.608C62.6634 136.392 62.7914 136.217 62.9594 136.084C63.13 135.948 63.334 135.88 63.5714 135.88ZM65.3532 135.88C65.5212 135.88 65.6545 135.916 65.7532 135.988C65.8545 136.06 65.9052 136.176 65.9052 136.336C65.9052 136.488 65.8598 136.617 65.7692 136.724C65.6785 136.831 65.5558 136.912 65.4012 136.968C65.2492 137.024 65.0798 137.052 64.8932 137.052C64.8185 137.052 64.7465 137.049 64.6772 137.044C64.6692 137.132 64.6652 137.212 64.6652 137.284C64.6652 137.439 64.6932 137.555 64.7492 137.632C64.8052 137.709 64.9012 137.748 65.0372 137.748C65.1518 137.748 65.2545 137.721 65.3452 137.668C65.4358 137.612 65.5065 137.533 65.5572 137.432C65.5892 137.44 65.6132 137.459 65.6292 137.488C65.6452 137.517 65.6532 137.552 65.6532 137.592C65.6532 137.672 65.6212 137.749 65.5572 137.824C65.4932 137.899 65.4038 137.96 65.2892 138.008C65.1745 138.056 65.0438 138.08 64.8972 138.08C64.6652 138.08 64.4918 138.016 64.3772 137.888C64.2625 137.757 64.2052 137.557 64.2052 137.288C64.2052 137.051 64.2478 136.825 64.3332 136.612C64.4212 136.396 64.5505 136.22 64.7212 136.084C64.8945 135.948 65.1052 135.88 65.3532 135.88ZM65.2612 136.108C65.1225 136.108 65.0038 136.185 64.9052 136.34C64.8065 136.492 64.7398 136.661 64.7052 136.848C64.9105 136.848 65.0892 136.805 65.2412 136.72C65.3932 136.635 65.4692 136.508 65.4692 136.34C65.4692 136.263 65.4505 136.205 65.4132 136.168C65.3785 136.128 65.3278 136.108 65.2612 136.108ZM68.4275 137.588C68.4675 137.639 68.4875 137.696 68.4875 137.76C68.4875 137.928 68.3742 138.012 68.1475 138.012L66.7795 138C66.6355 138 66.5435 138.016 66.5035 138.048C66.4795 138.005 66.4675 137.955 66.4675 137.896C66.4675 137.819 66.4942 137.757 66.5475 137.712C66.6008 137.664 66.6822 137.64 66.7915 137.64H67.2995L67.6435 135.864C67.5582 135.909 67.4595 135.948 67.3475 135.98C67.2382 136.012 67.1422 136.028 67.0595 136.028C66.9715 136.028 66.9035 135.999 66.8555 135.94C66.8102 135.881 66.7822 135.805 66.7715 135.712C67.1475 135.648 67.5928 135.509 68.1075 135.296L68.2195 135.36L67.7755 137.652H68.2235C68.3248 137.652 68.3928 137.631 68.4275 137.588ZM69.9904 135.276C70.5104 135.276 70.7704 135.585 70.7704 136.204C70.7704 136.497 70.7157 136.789 70.6064 137.08C70.4997 137.371 70.3437 137.611 70.1384 137.8C69.9357 137.987 69.6997 138.08 69.4304 138.08C69.289 138.08 69.165 138.053 69.0584 138C68.9544 137.947 68.9024 137.861 68.9024 137.744C68.9024 137.651 68.9384 137.583 69.0104 137.54C69.125 137.655 69.265 137.712 69.4304 137.712C69.641 137.712 69.8117 137.629 69.9424 137.464C70.073 137.296 70.1637 137.085 70.2144 136.832C70.1504 136.933 70.061 137.012 69.9464 137.068C69.8344 137.124 69.7104 137.152 69.5744 137.152C69.369 137.152 69.2144 137.087 69.1104 136.956C69.0064 136.825 68.9544 136.643 68.9544 136.408C68.9544 136.197 68.9944 136.007 69.0744 135.836C69.157 135.663 69.2757 135.527 69.4304 135.428C69.5877 135.327 69.7744 135.276 69.9904 135.276ZM69.9584 135.58C69.841 135.58 69.7437 135.624 69.6664 135.712C69.589 135.797 69.533 135.905 69.4984 136.036C69.4637 136.164 69.4464 136.293 69.4464 136.424C69.4464 136.555 69.4677 136.66 69.5104 136.74C69.5557 136.817 69.6357 136.856 69.7504 136.856C69.8677 136.856 69.9637 136.815 70.0384 136.732C70.1157 136.647 70.1717 136.541 70.2064 136.416C70.2437 136.288 70.2624 136.157 70.2624 136.024C70.2624 135.888 70.2397 135.78 70.1944 135.7C70.1517 135.62 70.073 135.58 69.9584 135.58ZM72.2052 135.276C72.7252 135.276 72.9852 135.585 72.9852 136.204C72.9852 136.497 72.9305 136.789 72.8212 137.08C72.7145 137.371 72.5585 137.611 72.3532 137.8C72.1505 137.987 71.9145 138.08 71.6452 138.08C71.5039 138.08 71.3799 138.053 71.2732 138C71.1692 137.947 71.1172 137.861 71.1172 137.744C71.1172 137.651 71.1532 137.583 71.2252 137.54C71.3399 137.655 71.4799 137.712 71.6452 137.712C71.8559 137.712 72.0265 137.629 72.1572 137.464C72.2879 137.296 72.3785 137.085 72.4292 136.832C72.3652 136.933 72.2759 137.012 72.1612 137.068C72.0492 137.124 71.9252 137.152 71.7892 137.152C71.5839 137.152 71.4292 137.087 71.3252 136.956C71.2212 136.825 71.1692 136.643 71.1692 136.408C71.1692 136.197 71.2092 136.007 71.2892 135.836C71.3719 135.663 71.4905 135.527 71.6452 135.428C71.8025 135.327 71.9892 135.276 72.2052 135.276ZM72.1732 135.58C72.0559 135.58 71.9585 135.624 71.8812 135.712C71.8039 135.797 71.7479 135.905 71.7132 136.036C71.6785 136.164 71.6612 136.293 71.6612 136.424C71.6612 136.555 71.6825 136.66 71.7252 136.74C71.7705 136.817 71.8505 136.856 71.9652 136.856C72.0825 136.856 72.1785 136.815 72.2532 136.732C72.3305 136.647 72.3865 136.541 72.4212 136.416C72.4585 136.288 72.4772 136.157 72.4772 136.024C72.4772 135.888 72.4545 135.78 72.4092 135.7C72.3665 135.62 72.2879 135.58 72.1732 135.58ZM74.544 135.28C74.7414 135.28 74.9 135.325 75.02 135.416C75.1427 135.504 75.204 135.633 75.204 135.804C75.204 136.092 75.0147 136.353 74.636 136.588C74.724 136.66 74.7934 136.723 74.844 136.776C74.8974 136.829 74.94 136.893 74.972 136.968C75.0067 137.04 75.024 137.127 75.024 137.228C75.024 137.391 74.98 137.537 74.892 137.668C74.804 137.796 74.6854 137.896 74.536 137.968C74.3867 138.04 74.2227 138.076 74.044 138.076C73.8174 138.076 73.6294 138.019 73.48 137.904C73.3307 137.789 73.256 137.628 73.256 137.42C73.256 137.239 73.3147 137.077 73.432 136.936C73.5494 136.792 73.704 136.675 73.896 136.584C73.8 136.504 73.7254 136.421 73.672 136.336C73.6214 136.248 73.596 136.145 73.596 136.028C73.596 135.873 73.6414 135.74 73.732 135.628C73.8227 135.513 73.94 135.427 74.084 135.368C74.2307 135.309 74.384 135.28 74.544 135.28ZM74.424 136.424C74.5147 136.373 74.5934 136.292 74.66 136.18C74.7267 136.068 74.76 135.96 74.76 135.856C74.76 135.768 74.7334 135.701 74.68 135.656C74.6294 135.608 74.5574 135.584 74.464 135.584C74.36 135.584 74.272 135.613 74.2 135.672C74.128 135.731 74.092 135.811 74.092 135.912C74.092 136 74.1174 136.084 74.168 136.164C74.2214 136.241 74.2867 136.311 74.364 136.372L74.424 136.424ZM74.096 136.744C73.968 136.805 73.8694 136.892 73.8 137.004C73.7334 137.113 73.7 137.231 73.7 137.356C73.7 137.487 73.7347 137.589 73.804 137.664C73.876 137.736 73.9734 137.772 74.096 137.772C74.224 137.772 74.3267 137.732 74.404 137.652C74.484 137.572 74.524 137.471 74.524 137.348C74.524 137.247 74.4974 137.157 74.444 137.08C74.3907 137 74.3147 136.921 74.216 136.844L74.096 136.744Z" fill="black"/>
<defs>
<linearGradient id="paint0_linear_7_145" x1="32.4737" y1="233.306" x2="34.7154" y2="13.3955" gradientUnits="userSpaceOnUse">
<stop offset="0.369792" stop-color="#D5D7DA" stop-opacity="0"/>
<stop offset="0.494792" stop-color="#EBEFF5" stop-opacity="0.114754"/>
<stop offset="0.625" stop-color="#FF9933"/>
</linearGradient>
<linearGradient id="paint1_linear_7_145" x1="75.6366" y1="0" x2="75.6366" y2="173.084" gradientUnits="userSpaceOnUse">
<stop offset="0.21875" stop-color="#A99A9A" stop-opacity="0"/>
<stop offset="0.614583" stop-color="#138808"/>
</linearGradient>
<linearGradient id="paint2_linear_7_145" x1="65" y1="32" x2="65" y2="162" gradientUnits="userSpaceOnUse">
<stop offset="0.239583" stop-color="#FF9933"/>
<stop offset="0.520833" stop-color="#60678C" stop-opacity="0"/>
<stop offset="0.833333" stop-color="#138808"/>
</linearGradient>
</defs>
</svg>
